<?xml version="1.0" encoding="UTF-8"?>
<svg width="110px" height="110px" viewBox="0 0 110 110" version="1.1" xmlns="http://www.w3.org/2000/svg" xmlns:xlink="http://www.w3.org/1999/xlink">
    <!-- Generator: Sketch 58 (84663) - https://sketch.com -->
    <title>d / sicbo / d_sic_history_chart_green</title>
    <desc>Created with Sketch.</desc>
    <defs>
        <linearGradient x1="0%" y1="100%" x2="50%" y2="17.7197585%" id="linearGradient-1">
            <stop stop-color="#E4E85C" offset="0%"></stop>
            <stop stop-color="#1FE479" offset="100%"></stop>
        </linearGradient>
        <path d="M1368,1218 C1392.85281,1218 1413,1238.14719 1413,1263 C1413,1287.85281 1392.85281,1308 1368,1308 C1343.14719,1308 1323,1287.85281 1323,1263 C1323,1238.14719 1343.14719,1218 1368,1218 Z M1368,1247.54198 C1359.46277,1247.54198 1352.54198,1254.46277 1352.54198,1263 C1352.54198,1271.53723 1359.46277,1278.45802 1368,1278.45802 C1376.53723,1278.45802 1383.45802,1271.53723 1383.45802,1263 C1383.45802,1254.46277 1376.53723,1247.54198 1368,1247.54198 Z" id="path-2"></path>
        <filter x="-16.7%" y="-16.7%" width="133.3%" height="133.3%" filterUnits="objectBoundingBox" id="filter-3">
            <feOffset dx="0" dy="0" in="SourceAlpha" result="shadowOffsetOuter1"></feOffset>
            <feGaussianBlur stdDeviation="5" in="shadowOffsetOuter1" result="shadowBlurOuter1"></feGaussianBlur>
            <feColorMatrix values="0 0 0 0 0   0 0 0 0 0   0 0 0 0 0  0 0 0 0.5 0" type="matrix" in="shadowBlurOuter1"></feColorMatrix>
        </filter>
    </defs>
    <g id="Output" stroke="none" stroke-width="1" fill="none" fill-rule="evenodd">
        <g id="Sicbo-/-In-game" transform="translate(-1313.000000, -1208.000000)">
            <g id="d-/-sicbo-/-d_sic_history_chart_green">
                <use fill="black" fill-opacity="1" filter="url(#filter-3)" xlink:href="#path-2"></use>
                <use fill="url(#linearGradient-1)" fill-rule="evenodd" xlink:href="#path-2"></use>
            </g>
        </g>
    </g>
</svg>